<?xml version="1.0" encoding="UTF-8" standalone="no"?>
<!DOCTYPE svg PUBLIC "-//W3C//DTD SVG 1.1//EN"
 "http://www.w3.org/Graphics/SVG/1.1/DTD/svg11.dtd">
<!-- Generated by graphviz version 2.40.1 (20161225.0304)
 -->
<!-- Title: article_dependencies Pages: 1 -->
<svg width="749pt" height="584pt"
 viewBox="0.00 0.00 749.17 583.70" xmlns="http://www.w3.org/2000/svg" xmlns:xlink="http://www.w3.org/1999/xlink">
<g id="graph0" class="graph" transform="scale(1 1) rotate(0) translate(4 579.7006)">
<title>article_dependencies</title>
<polygon fill="#ffffff" stroke="transparent" points="-4,4 -4,-579.7006 745.1737,-579.7006 745.1737,4 -4,4"/>
<g id="clust1" class="cluster">
<title>cluster_int</title>
<polygon fill="none" stroke="#000000" points="259.9655,-93.7401 259.9655,-430.9605 515.9655,-430.9605 515.9655,-93.7401 259.9655,-93.7401"/>
</g>
<g id="clust2" class="cluster">
<title>cluster_build</title>
<polygon fill="none" stroke="#000000" points="523.9655,-8 523.9655,-262.2203 725.9655,-262.2203 725.9655,-8 523.9655,-8"/>
</g>
<!-- the_media -->
<g id="node1" class="node">
<title>the_media</title>
<ellipse fill="none" stroke="#000000" cx="129.9655" cy="-128.6102" rx="113.6886" ry="26.7407"/>
<text text-anchor="middle" x="129.9655" y="-132.4102" font-family="Times,serif" font-size="14.00" fill="#000000">media files used in article</text>
<text text-anchor="middle" x="129.9655" y="-117.4102" font-family="Times,serif" font-size="14.00" fill="#000000">(.svg, .webm, ...)</text>
</g>
<!-- media -->
<g id="node8" class="node">
<title>media</title>
<ellipse fill="#c0c0c0" stroke="#000000" cx="391.9655" cy="-128.6102" rx="113.2743" ry="26.7407"/>
<text text-anchor="middle" x="391.9655" y="-132.4102" font-family="Times,serif" font-size="14.00" fill="#000000">media intermediate target</text>
<text text-anchor="middle" x="391.9655" y="-117.4102" font-family="Times,serif" font-size="14.00" fill="#000000">(.media)</text>
</g>
<!-- the_media&#45;&gt;media -->
<g id="edge6" class="edge">
<title>the_media&#45;&gt;media</title>
<path fill="none" stroke="#000000" d="M243.8229,-128.6102C252.0511,-128.6102 260.2792,-128.6102 268.5073,-128.6102"/>
<polygon fill="#000000" stroke="#000000" points="268.5439,-132.1103 278.5439,-128.6102 268.5438,-125.1103 268.5439,-132.1103"/>
</g>
<!-- the_sections -->
<g id="node2" class="node">
<title>the_sections</title>
<ellipse fill="none" stroke="#000000" cx="115.9655" cy="-313.0904" rx="115.931" ry="26.7407"/>
<text text-anchor="middle" x="115.9655" y="-316.8904" font-family="Times,serif" font-size="14.00" fill="#000000">fragments of other articles</text>
<text text-anchor="middle" x="115.9655" y="-301.8904" font-family="Times,serif" font-size="14.00" fill="#000000">(.yml)</text>
</g>
<!-- sections -->
<g id="node6" class="node">
<title>sections</title>
<ellipse fill="#c0c0c0" stroke="#000000" cx="387.9655" cy="-313.0904" rx="120.4167" ry="26.7407"/>
<text text-anchor="middle" x="387.9655" y="-316.8904" font-family="Times,serif" font-size="14.00" fill="#000000">sections intermediate target</text>
<text text-anchor="middle" x="387.9655" y="-301.8904" font-family="Times,serif" font-size="14.00" fill="#000000">(.sections)</text>
</g>
<!-- the_sections&#45;&gt;sections -->
<g id="edge7" class="edge">
<title>the_sections&#45;&gt;sections</title>
<path fill="none" stroke="#000000" d="M232.0436,-313.0904C240.5801,-313.0904 249.1166,-313.0904 257.6531,-313.0904"/>
<polygon fill="#000000" stroke="#000000" points="257.6743,-316.5905 267.6742,-313.0904 257.6742,-309.5905 257.6743,-316.5905"/>
</g>
<!-- md -->
<g id="node3" class="node">
<title>md</title>
<ellipse fill="none" stroke="#000000" cx="620.9655" cy="-557.7006" rx="81.7856" ry="18"/>
<text text-anchor="middle" x="620.9655" y="-554.0006" font-family="Times,serif" font-size="14.00" fill="#000000">article source (.md)</text>
</g>
<!-- yml -->
<g id="node4" class="node">
<title>yml</title>
<ellipse fill="none" stroke="#000000" cx="620.9655" cy="-481.8305" rx="120.4167" ry="26.7407"/>
<text text-anchor="middle" x="620.9655" y="-485.6305" font-family="Times,serif" font-size="14.00" fill="#000000">intermediate representation</text>
<text text-anchor="middle" x="620.9655" y="-470.6305" font-family="Times,serif" font-size="14.00" fill="#000000">(.yml)</text>
</g>
<!-- md&#45;&gt;yml -->
<g id="edge8" class="edge">
<title>md&#45;&gt;yml</title>
<path fill="none" stroke="#000000" d="M620.9655,-539.3346C620.9655,-533.2058 620.9655,-526.1385 620.9655,-519.1018"/>
<polygon fill="#000000" stroke="#000000" points="624.4656,-518.9267 620.9655,-508.9268 617.4656,-518.9268 624.4656,-518.9267"/>
</g>
<!-- section_dep -->
<g id="node7" class="node">
<title>section_dep</title>
<polygon fill="none" stroke="#000000" points="456.4655,-422.9605 319.4655,-422.9605 319.4655,-384.9605 456.4655,-384.9605 456.4655,-422.9605"/>
<text text-anchor="middle" x="387.9655" y="-407.7605" font-family="Times,serif" font-size="14.00" fill="#000000">section dependencies</text>
<text text-anchor="middle" x="387.9655" y="-392.7605" font-family="Times,serif" font-size="14.00" fill="#000000">(.section&#45;dep)</text>
</g>
<!-- yml&#45;&gt;section_dep -->
<g id="edge9" class="edge">
<title>yml&#45;&gt;section_dep</title>
<path fill="none" stroke="#000000" d="M553.8849,-459.4117C530.3207,-451.5365 503.4454,-442.5546 478.2875,-434.1466"/>
<polygon fill="#000000" stroke="#000000" points="479.3339,-430.8061 468.7401,-430.9558 477.115,-437.4452 479.3339,-430.8061"/>
</g>
<!-- anchors -->
<g id="node10" class="node">
<title>anchors</title>
<ellipse fill="none" stroke="#000000" cx="618.9655" cy="-227.3503" rx="82.0488" ry="26.7407"/>
<text text-anchor="middle" x="618.9655" y="-231.1503" font-family="Times,serif" font-size="14.00" fill="#000000">reference anchors</text>
<text text-anchor="middle" x="618.9655" y="-216.1503" font-family="Times,serif" font-size="14.00" fill="#000000">(.anchors)</text>
</g>
<!-- yml&#45;&gt;anchors -->
<g id="edge11" class="edge">
<title>yml&#45;&gt;anchors</title>
<path fill="none" stroke="#000000" d="M620.7515,-454.5967C620.3913,-408.7733 619.6638,-316.2027 619.2572,-264.4703"/>
<polygon fill="#000000" stroke="#000000" points="623.0282,-272.0908 619.178,-262.2203 616.0326,-272.3375 623.0282,-272.0908"/>
</g>
<!-- markers -->
<g id="node5" class="node">
<title>markers</title>
<ellipse fill="none" stroke="#000000" cx="381.9655" cy="-481.8305" rx="101.2327" ry="26.7407"/>
<text text-anchor="middle" x="381.9655" y="-485.6305" font-family="Times,serif" font-size="14.00" fill="#000000">article marker dummy</text>
<text text-anchor="middle" x="381.9655" y="-470.6305" font-family="Times,serif" font-size="14.00" fill="#000000">(.markers)</text>
</g>
<!-- markers&#45;&gt;section_dep -->
<g id="edge10" class="edge">
<title>markers&#45;&gt;section_dep</title>
<path fill="none" stroke="#000000" d="M384.064,-454.5954C384.5874,-447.8028 385.1511,-440.4865 385.6829,-433.5848"/>
<polygon fill="#000000" stroke="#000000" points="386.9174,-441.5464 386.4819,-430.9605 380.2209,-439.5075 386.9174,-441.5464"/>
</g>
<!-- markers&#45;&gt;anchors -->
<g id="edge12" class="edge">
<title>markers&#45;&gt;anchors</title>
<path fill="none" stroke="#000000" d="M460.0159,-464.6012C481.305,-457.0069 503.1177,-446.2117 519.9655,-430.9605 570.0839,-385.5915 597.5449,-309.2798 610.1708,-264.0811"/>
<polygon fill="#000000" stroke="#000000" points="610.9767,-272.8136 610.7843,-262.2203 604.3287,-270.6214 610.9767,-272.8136"/>
</g>
<!-- media_dep -->
<g id="node9" class="node">
<title>media_dep</title>
<polygon fill="none" stroke="#000000" points="455.4655,-246.3503 324.4655,-246.3503 324.4655,-208.3503 455.4655,-208.3503 455.4655,-246.3503"/>
<text text-anchor="middle" x="389.9655" y="-231.1503" font-family="Times,serif" font-size="14.00" fill="#000000">media dependencies</text>
<text text-anchor="middle" x="389.9655" y="-216.1503" font-family="Times,serif" font-size="14.00" fill="#000000">(.media&#45;dep)</text>
</g>
<!-- sections&#45;&gt;media_dep -->
<g id="edge2" class="edge">
<title>sections&#45;&gt;media_dep</title>
<path fill="none" stroke="#000000" d="M388.5983,-285.9617C388.8162,-276.6225 389.061,-266.1259 389.2827,-256.6234"/>
<polygon fill="#000000" stroke="#000000" points="392.7862,-256.511 389.5204,-246.432 385.7881,-256.3477 392.7862,-256.511"/>
</g>
<!-- sections&#45;&gt;anchors -->
<g id="edge13" class="edge">
<title>sections&#45;&gt;anchors</title>
<path fill="none" stroke="#000000" d="M450.1731,-290.0008C470.3117,-282.526 493.2187,-274.0237 515.5196,-265.7462"/>
<polygon fill="#000000" stroke="#000000" points="516.8731,-268.9772 525.0303,-262.2162 514.4373,-262.4147 516.8731,-268.9772"/>
</g>
<!-- section_dep&#45;&gt;sections -->
<g id="edge1" class="edge">
<title>section_dep&#45;&gt;sections</title>
<path fill="none" stroke="#000000" stroke-dasharray="1,5" d="M387.9655,-384.6893C387.9655,-374.6962 387.9655,-362.1417 387.9655,-350.3475"/>
<polygon fill="#000000" stroke="#000000" points="391.4656,-350.2621 387.9655,-340.2621 384.4656,-350.2621 391.4656,-350.2621"/>
<text text-anchor="middle" x="408.4655" y="-358.7605" font-family="Times,serif" font-size="14.00" fill="#000000">defines</text>
</g>
<!-- result -->
<g id="node11" class="node">
<title>result</title>
<ellipse fill="none" stroke="#000000" cx="624.9655" cy="-42.8701" rx="92.7622" ry="26.7407"/>
<text text-anchor="middle" x="624.9655" y="-46.6701" font-family="Times,serif" font-size="14.00" fill="#000000">exported article</text>
<text text-anchor="middle" x="624.9655" y="-31.6701" font-family="Times,serif" font-size="14.00" fill="#000000">(.tex, .raw_html, ...)</text>
</g>
<!-- media&#45;&gt;result -->
<g id="edge5" class="edge">
<title>media&#45;&gt;result</title>
<path fill="none" stroke="#000000" d="M453.4883,-105.9708C485.6391,-94.1398 525.0382,-79.6416 557.9599,-67.527"/>
<polygon fill="#000000" stroke="#000000" points="559.3306,-70.7521 567.5067,-64.014 556.9132,-64.1828 559.3306,-70.7521"/>
</g>
<!-- media_dep&#45;&gt;media -->
<g id="edge3" class="edge">
<title>media_dep&#45;&gt;media</title>
<path fill="none" stroke="#000000" stroke-dasharray="1,5" d="M390.3511,-208.3122C390.5941,-196.3169 390.9161,-180.4213 391.2085,-165.9829"/>
<polygon fill="#000000" stroke="#000000" points="394.7114,-165.8725 391.4147,-155.8037 387.7128,-165.7307 394.7114,-165.8725"/>
<text text-anchor="middle" x="411.4655" y="-174.2802" font-family="Times,serif" font-size="14.00" fill="#000000">defines</text>
</g>
<!-- anchors&#45;&gt;result -->
<g id="edge4" class="edge">
<title>anchors&#45;&gt;result</title>
<path fill="none" stroke="#000000" d="M619.8508,-200.1296C620.8818,-168.4296 622.5908,-115.8841 623.7467,-80.3438"/>
<polygon fill="#000000" stroke="#000000" points="627.2593,-80.0104 624.0863,-69.9019 620.263,-79.7828 627.2593,-80.0104"/>
</g>
</g>
</svg>
