<?xml version="1.0" encoding="UTF-8" standalone="no"?>
<!DOCTYPE svg PUBLIC "-//W3C//DTD SVG 1.1//EN"
 "http://www.w3.org/Graphics/SVG/1.1/DTD/svg11.dtd">
<!-- Generated by graphviz version 2.40.1 (20161225.0304)
 -->
<!-- Title: book_dependencies Pages: 1 -->
<svg width="669pt" height="956pt"
 viewBox="0.00 0.00 669.09 956.18" xmlns="http://www.w3.org/2000/svg" xmlns:xlink="http://www.w3.org/1999/xlink">
<g id="graph0" class="graph" transform="scale(1 1) rotate(0) translate(4 952.1808)">
<title>book_dependencies</title>
<polygon fill="#ffffff" stroke="transparent" points="-4,4 -4,-952.1808 665.0854,-952.1808 665.0854,4 -4,4"/>
<g id="clust1" class="cluster">
<title>cluster_articles</title>
<polygon fill="none" stroke="#000000" points="391.0854,-144.7401 391.0854,-447.2203 653.0854,-447.2203 653.0854,-144.7401 391.0854,-144.7401"/>
</g>
<!-- sitemap_article -->
<g id="node1" class="node">
<title>sitemap_article</title>
<ellipse fill="none" stroke="#000000" cx="177.0854" cy="-921.3107" rx="69.0935" ry="26.7407"/>
<text text-anchor="middle" x="177.0854" y="-925.1107" font-family="Times,serif" font-size="14.00" fill="#000000">sitemap article</text>
<text text-anchor="middle" x="177.0854" y="-910.1107" font-family="Times,serif" font-size="14.00" fill="#000000">source (.md)</text>
</g>
<!-- sitemap_parsed -->
<g id="node2" class="node">
<title>sitemap_parsed</title>
<ellipse fill="none" stroke="#000000" cx="177.0854" cy="-836.5706" rx="80.7205" ry="26.7407"/>
<text text-anchor="middle" x="177.0854" y="-840.3706" font-family="Times,serif" font-size="14.00" fill="#000000">parsed sitemap</text>
<text text-anchor="middle" x="177.0854" y="-825.3706" font-family="Times,serif" font-size="14.00" fill="#000000">article (.raw.json)</text>
</g>
<!-- sitemap_article&#45;&gt;sitemap_parsed -->
<g id="edge1" class="edge">
<title>sitemap_article&#45;&gt;sitemap_parsed</title>
<path fill="none" stroke="#000000" d="M177.0854,-894.032C177.0854,-887.6182 177.0854,-880.6737 177.0854,-873.9032"/>
<polygon fill="#000000" stroke="#000000" points="180.5854,-873.5084 177.0854,-863.5085 173.5854,-873.5085 180.5854,-873.5084"/>
</g>
<!-- sitemap_intermediate -->
<g id="node3" class="node">
<title>sitemap_intermediate</title>
<ellipse fill="none" stroke="#000000" cx="177.0854" cy="-751.8305" rx="96.7474" ry="26.7407"/>
<text text-anchor="middle" x="177.0854" y="-755.6305" font-family="Times,serif" font-size="14.00" fill="#000000">sitemap intermediate</text>
<text text-anchor="middle" x="177.0854" y="-740.6305" font-family="Times,serif" font-size="14.00" fill="#000000">representation (.json)</text>
</g>
<!-- sitemap_parsed&#45;&gt;sitemap_intermediate -->
<g id="edge2" class="edge">
<title>sitemap_parsed&#45;&gt;sitemap_intermediate</title>
<path fill="none" stroke="#000000" d="M177.0854,-809.2919C177.0854,-802.8781 177.0854,-795.9336 177.0854,-789.1631"/>
<polygon fill="#000000" stroke="#000000" points="180.5854,-788.7683 177.0854,-778.7684 173.5854,-788.7684 180.5854,-788.7683"/>
</g>
<!-- sitemap -->
<g id="node4" class="node">
<title>sitemap</title>
<ellipse fill="none" stroke="#000000" cx="177.0854" cy="-675.9605" rx="96.3833" ry="18"/>
<text text-anchor="middle" x="177.0854" y="-672.2605" font-family="Times,serif" font-size="14.00" fill="#000000">sitemap (.sitemap.json)</text>
</g>
<!-- sitemap_intermediate&#45;&gt;sitemap -->
<g id="edge3" class="edge">
<title>sitemap_intermediate&#45;&gt;sitemap</title>
<path fill="none" stroke="#000000" d="M177.0854,-724.8679C177.0854,-718.1597 177.0854,-710.9505 177.0854,-704.1834"/>
<polygon fill="#000000" stroke="#000000" points="180.5855,-704.0488 177.0854,-694.0489 173.5855,-704.0489 180.5855,-704.0488"/>
</g>
<!-- subtargetmap -->
<g id="node5" class="node">
<title>subtargetmap</title>
<ellipse fill="none" stroke="#000000" cx="177.0854" cy="-608.9605" rx="139.1754" ry="18"/>
<text text-anchor="middle" x="177.0854" y="-605.2605" font-family="Times,serif" font-size="14.00" fill="#000000">subtargetmap (.subtargetmap.json)</text>
</g>
<!-- sitemap&#45;&gt;subtargetmap -->
<g id="edge4" class="edge">
<title>sitemap&#45;&gt;subtargetmap</title>
<path fill="none" stroke="#000000" d="M177.0854,-657.6524C177.0854,-651.4484 177.0854,-644.3624 177.0854,-637.5529"/>
<polygon fill="#000000" stroke="#000000" points="180.5854,-637.2463 177.0854,-627.2464 173.5854,-637.2464 180.5854,-637.2463"/>
</g>
<!-- book_deps -->
<g id="node6" class="node">
<title>book_deps</title>
<polygon fill="none" stroke="#000000" points="267.0854,-491.2203 55.0854,-491.2203 55.0854,-455.2203 267.0854,-455.2203 267.0854,-491.2203"/>
<text text-anchor="middle" x="161.0854" y="-469.5203" font-family="Times,serif" font-size="14.00" fill="#000000">book dependency file (.book.dep)</text>
</g>
<!-- subtargetmap&#45;&gt;book_deps -->
<g id="edge5" class="edge">
<title>subtargetmap&#45;&gt;book_deps</title>
<path fill="none" stroke="#000000" d="M174.9607,-590.9352C172.2591,-568.0155 167.5652,-528.1937 164.3933,-501.2841"/>
<polygon fill="#000000" stroke="#000000" points="167.8655,-500.8416 163.2188,-491.3201 160.9136,-501.6611 167.8655,-500.8416"/>
</g>
<!-- the_markers -->
<g id="node9" class="node">
<title>the_markers</title>
<ellipse fill="none" stroke="#000000" cx="265.0854" cy="-533.0904" rx="70.0071" ry="26.7407"/>
<text text-anchor="middle" x="265.0854" y="-536.8904" font-family="Times,serif" font-size="14.00" fill="#000000">article markers</text>
<text text-anchor="middle" x="265.0854" y="-521.8904" font-family="Times,serif" font-size="14.00" fill="#000000">(.markers)</text>
</g>
<!-- subtargetmap&#45;&gt;the_markers -->
<g id="edge10" class="edge">
<title>subtargetmap&#45;&gt;the_markers</title>
<path fill="none" stroke="#000000" d="M197.9401,-590.9803C207.0935,-583.0886 218.1151,-573.5862 228.5582,-564.5827"/>
<polygon fill="#000000" stroke="#000000" points="231.1024,-567.0104 236.3907,-557.8298 226.5315,-561.7088 231.1024,-567.0104"/>
</g>
<!-- book_dependencies -->
<g id="node7" class="node">
<title>book_dependencies</title>
<ellipse fill="none" stroke="#000000" cx="165.0854" cy="-102.7401" rx="165.1707" ry="18"/>
<text text-anchor="middle" x="165.0854" y="-99.0401" font-family="Times,serif" font-size="14.00" fill="#000000">book dependencies (.book.dependencies)</text>
</g>
<!-- book_deps&#45;&gt;book_dependencies -->
<g id="edge6" class="edge">
<title>book_deps&#45;&gt;book_dependencies</title>
<path fill="none" stroke="#000000" stroke-dasharray="1,5" d="M158.3769,-454.9203C156.0561,-437.6396 153.0854,-410.9777 153.0854,-387.7203 153.0854,-387.7203 153.0854,-387.7203 153.0854,-179.6102 153.0854,-163.3066 155.7531,-145.2883 158.5728,-130.7967"/>
<polygon fill="#000000" stroke="#000000" points="162.0127,-131.4452 160.617,-120.9427 155.1587,-130.0233 162.0127,-131.4452"/>
<text text-anchor="middle" x="173.5854" y="-292.2802" font-family="Times,serif" font-size="14.00" fill="#000000">defines</text>
</g>
<!-- result -->
<g id="node11" class="node">
<title>result</title>
<ellipse fill="none" stroke="#000000" cx="165.0854" cy="-26.8701" rx="120.4167" ry="26.7407"/>
<text text-anchor="middle" x="165.0854" y="-30.6701" font-family="Times,serif" font-size="14.00" fill="#000000">book export result</text>
<text text-anchor="middle" x="165.0854" y="-15.6701" font-family="Times,serif" font-size="14.00" fill="#000000">(.book.tex, .book.html, ...)</text>
</g>
<!-- book_dependencies&#45;&gt;result -->
<g id="edge13" class="edge">
<title>book_dependencies&#45;&gt;result</title>
<path fill="none" stroke="#000000" d="M165.0854,-84.3741C165.0854,-78.2453 165.0854,-71.1781 165.0854,-64.1413"/>
<polygon fill="#000000" stroke="#000000" points="168.5855,-63.9663 165.0854,-53.9663 161.5855,-63.9664 168.5855,-63.9663"/>
</g>
<!-- book_anchors -->
<g id="node8" class="node">
<title>book_anchors</title>
<ellipse fill="none" stroke="#000000" cx="282.0854" cy="-255.4802" rx="100.9827" ry="18"/>
<text text-anchor="middle" x="282.0854" y="-251.7802" font-family="Times,serif" font-size="14.00" fill="#000000">book anchors (.anchors)</text>
</g>
<!-- the_articles -->
<g id="node12" class="node">
<title>the_articles</title>
<ellipse fill="none" stroke="#000000" cx="522.0854" cy="-179.6102" rx="123.0732" ry="26.7407"/>
<text text-anchor="middle" x="522.0854" y="-183.4102" font-family="Times,serif" font-size="14.00" fill="#000000">exported articles</text>
<text text-anchor="middle" x="522.0854" y="-168.4102" font-family="Times,serif" font-size="14.00" fill="#000000">(.tex, .raw_html, .stats.yml)</text>
</g>
<!-- book_anchors&#45;&gt;the_articles -->
<g id="edge9" class="edge">
<title>book_anchors&#45;&gt;the_articles</title>
<path fill="none" stroke="#000000" d="M331.8135,-239.7599C363.7008,-229.6795 405.8096,-216.3679 442.3057,-204.8305"/>
<polygon fill="#000000" stroke="#000000" points="443.4641,-208.1351 451.944,-201.7836 441.3541,-201.4607 443.4641,-208.1351"/>
</g>
<!-- omitted -->
<g id="node14" class="node">
<title>omitted</title>
<ellipse fill="none" stroke="#000000" cx="505.0854" cy="-421.2203" rx="27" ry="18"/>
<text text-anchor="middle" x="505.0854" y="-417.5203" font-family="Times,serif" font-size="14.00" fill="#000000">...</text>
</g>
<!-- the_markers&#45;&gt;omitted -->
<g id="edge11" class="edge">
<title>the_markers&#45;&gt;omitted</title>
<path fill="none" stroke="#000000" d="M309.665,-512.3107C346.3318,-495.2194 398.7973,-470.7639 440.1354,-451.4951"/>
<polygon fill="#000000" stroke="#000000" points="441.7271,-454.6149 449.3121,-447.2177 438.7697,-448.2702 441.7271,-454.6149"/>
</g>
<!-- article_deps -->
<g id="node10" class="node">
<title>article_deps</title>
<ellipse fill="none" stroke="#000000" cx="505.0854" cy="-533.0904" rx="150.7276" ry="26.7407"/>
<text text-anchor="middle" x="505.0854" y="-536.8904" font-family="Times,serif" font-size="14.00" fill="#000000">other article dependencies</text>
<text text-anchor="middle" x="505.0854" y="-521.8904" font-family="Times,serif" font-size="14.00" fill="#000000">(article source, sections, media, ...)</text>
</g>
<!-- article_deps&#45;&gt;omitted -->
<g id="edge12" class="edge">
<title>article_deps&#45;&gt;omitted</title>
<path fill="none" stroke="#000000" d="M505.0854,-506.0098C505.0854,-488.8737 505.0854,-466.7621 505.0854,-449.416"/>
<polygon fill="#000000" stroke="#000000" points="508.5858,-457.2202 505.0854,-447.2203 501.5858,-457.2205 508.5858,-457.2202"/>
</g>
<!-- the_articles&#45;&gt;book_dependencies -->
<g id="edge7" class="edge">
<title>the_articles&#45;&gt;book_dependencies</title>
<path fill="none" stroke="#000000" d="M434.2961,-160.7072C378.0104,-148.5876 305.3357,-132.9391 249.6848,-120.9563"/>
<polygon fill="#000000" stroke="#000000" points="250.3648,-117.5225 239.852,-118.8391 248.8912,-124.3657 250.3648,-117.5225"/>
</g>
<!-- the_anchors -->
<g id="node13" class="node">
<title>the_anchors</title>
<ellipse fill="none" stroke="#000000" cx="507.0854" cy="-345.3503" rx="108.375" ry="26.7407"/>
<text text-anchor="middle" x="507.0854" y="-349.1503" font-family="Times,serif" font-size="14.00" fill="#000000">article reference anchors</text>
<text text-anchor="middle" x="507.0854" y="-334.1503" font-family="Times,serif" font-size="14.00" fill="#000000">(.anchors)</text>
</g>
<!-- the_anchors&#45;&gt;book_anchors -->
<g id="edge8" class="edge">
<title>the_anchors&#45;&gt;book_anchors</title>
<path fill="none" stroke="#000000" d="M449.7262,-322.4397C413.6661,-308.0366 367.5644,-289.6225 332.8366,-275.7514"/>
<polygon fill="#000000" stroke="#000000" points="333.9459,-272.4257 323.361,-271.9666 331.3493,-278.9263 333.9459,-272.4257"/>
</g>
<!-- the_anchors&#45;&gt;the_articles -->
<g id="edge15" class="edge">
<title>the_anchors&#45;&gt;the_articles</title>
<path fill="none" stroke="#000000" d="M509.5287,-318.3524C512.0239,-290.7826 515.9167,-247.7696 518.7064,-216.9457"/>
<polygon fill="#000000" stroke="#000000" points="522.2273,-216.8713 519.643,-206.5965 515.2558,-216.2403 522.2273,-216.8713"/>
</g>
<!-- omitted&#45;&gt;the_anchors -->
<g id="edge14" class="edge">
<title>omitted&#45;&gt;the_anchors</title>
<path fill="none" stroke="#000000" stroke-dasharray="5,2" d="M505.5695,-402.8543C505.7311,-396.7255 505.9174,-389.6583 506.1028,-382.6216"/>
<polygon fill="#000000" stroke="#000000" points="509.6062,-382.5353 506.3711,-372.4465 502.6087,-382.3508 509.6062,-382.5353"/>
</g>
<!-- omitted2 -->
<g id="node15" class="node">
<title>omitted2</title>
<ellipse fill="none" stroke="#000000" cx="476.0854" cy="-255.4802" rx="27" ry="18"/>
<text text-anchor="middle" x="476.0854" y="-251.7802" font-family="Times,serif" font-size="14.00" fill="#000000">...</text>
</g>
<!-- omitted2&#45;&gt;the_articles -->
<g id="edge16" class="edge">
<title>omitted2&#45;&gt;the_articles</title>
<path fill="none" stroke="#000000" stroke-dasharray="5,2" d="M486.2942,-238.6422C490.4928,-231.7173 495.5253,-223.417 500.4719,-215.2583"/>
<polygon fill="#000000" stroke="#000000" points="503.5706,-216.8983 505.7623,-206.5327 497.5848,-213.2692 503.5706,-216.8983"/>
</g>
</g>
</svg>
