<?xml version="1.0" encoding="UTF-8" standalone="no"?>
<!DOCTYPE svg PUBLIC "-//W3C//DTD SVG 1.1//EN"
 "http://www.w3.org/Graphics/SVG/1.1/DTD/svg11.dtd">
<!-- Generated by graphviz version 2.40.1 (20161225.0304)
 -->
<!-- Title: book_dependencies Pages: 1 -->
<svg width="776pt" height="889pt"
 viewBox="0.00 0.00 775.70 889.18" xmlns="http://www.w3.org/2000/svg" xmlns:xlink="http://www.w3.org/1999/xlink">
<g id="graph0" class="graph" transform="scale(1 1) rotate(0) translate(4 885.1808)">
<title>book_dependencies</title>
<polygon fill="#ffffff" stroke="transparent" points="-4,4 -4,-885.1808 771.6991,-885.1808 771.6991,4 -4,4"/>
<g id="clust1" class="cluster">
<title>cluster_articles</title>
<polygon fill="none" stroke="#000000" points="391.0854,-144.7401 391.0854,-447.2203 653.0854,-447.2203 653.0854,-144.7401 391.0854,-144.7401"/>
</g>
<!-- sitemap_article -->
<g id="node1" class="node">
<title>sitemap_article</title>
<ellipse fill="none" stroke="#000000" cx="280.0854" cy="-854.3107" rx="69.0935" ry="26.7407"/>
<text text-anchor="middle" x="280.0854" y="-858.1107" font-family="Times,serif" font-size="14.00" fill="#000000">sitemap article</text>
<text text-anchor="middle" x="280.0854" y="-843.1107" font-family="Times,serif" font-size="14.00" fill="#000000">source (.md)</text>
</g>
<!-- sitemap_parsed -->
<g id="node2" class="node">
<title>sitemap_parsed</title>
<ellipse fill="none" stroke="#000000" cx="280.0854" cy="-769.5706" rx="80.7205" ry="26.7407"/>
<text text-anchor="middle" x="280.0854" y="-773.3706" font-family="Times,serif" font-size="14.00" fill="#000000">parsed sitemap</text>
<text text-anchor="middle" x="280.0854" y="-758.3706" font-family="Times,serif" font-size="14.00" fill="#000000">article (.raw.json)</text>
</g>
<!-- sitemap_article&#45;&gt;sitemap_parsed -->
<g id="edge1" class="edge">
<title>sitemap_article&#45;&gt;sitemap_parsed</title>
<path fill="none" stroke="#000000" d="M280.0854,-827.032C280.0854,-820.6182 280.0854,-813.6737 280.0854,-806.9032"/>
<polygon fill="#000000" stroke="#000000" points="283.5854,-806.5084 280.0854,-796.5085 276.5854,-806.5085 283.5854,-806.5084"/>
</g>
<!-- sitemap_intermediate -->
<g id="node3" class="node">
<title>sitemap_intermediate</title>
<ellipse fill="none" stroke="#000000" cx="280.0854" cy="-684.8305" rx="96.7474" ry="26.7407"/>
<text text-anchor="middle" x="280.0854" y="-688.6305" font-family="Times,serif" font-size="14.00" fill="#000000">sitemap intermediate</text>
<text text-anchor="middle" x="280.0854" y="-673.6305" font-family="Times,serif" font-size="14.00" fill="#000000">representation (.json)</text>
</g>
<!-- sitemap_parsed&#45;&gt;sitemap_intermediate -->
<g id="edge2" class="edge">
<title>sitemap_parsed&#45;&gt;sitemap_intermediate</title>
<path fill="none" stroke="#000000" d="M280.0854,-742.2919C280.0854,-735.8781 280.0854,-728.9336 280.0854,-722.1631"/>
<polygon fill="#000000" stroke="#000000" points="283.5854,-721.7683 280.0854,-711.7684 276.5854,-721.7684 283.5854,-721.7683"/>
</g>
<!-- sitemap -->
<g id="node4" class="node">
<title>sitemap</title>
<ellipse fill="none" stroke="#000000" cx="280.0854" cy="-608.9605" rx="96.3833" ry="18"/>
<text text-anchor="middle" x="280.0854" y="-605.2605" font-family="Times,serif" font-size="14.00" fill="#000000">sitemap (.sitemap.json)</text>
</g>
<!-- sitemap_intermediate&#45;&gt;sitemap -->
<g id="edge3" class="edge">
<title>sitemap_intermediate&#45;&gt;sitemap</title>
<path fill="none" stroke="#000000" d="M280.0854,-657.8679C280.0854,-651.1597 280.0854,-643.9505 280.0854,-637.1834"/>
<polygon fill="#000000" stroke="#000000" points="283.5855,-637.0488 280.0854,-627.0489 276.5855,-637.0489 283.5855,-637.0488"/>
</g>
<!-- book_deps -->
<g id="node5" class="node">
<title>book_deps</title>
<polygon fill="none" stroke="#000000" points="263.0854,-491.2203 51.0854,-491.2203 51.0854,-455.2203 263.0854,-455.2203 263.0854,-491.2203"/>
<text text-anchor="middle" x="157.0854" y="-469.5203" font-family="Times,serif" font-size="14.00" fill="#000000">book dependency file (.book.dep)</text>
</g>
<!-- sitemap&#45;&gt;book_deps -->
<g id="edge4" class="edge">
<title>sitemap&#45;&gt;book_deps</title>
<path fill="none" stroke="#000000" d="M263.7519,-590.9352C242.3401,-567.3056 204.6491,-525.7107 180.2838,-498.8217"/>
<polygon fill="#000000" stroke="#000000" points="182.7947,-496.3802 173.4864,-491.3201 177.6075,-501.0806 182.7947,-496.3802"/>
</g>
<!-- book_anchors -->
<g id="node7" class="node">
<title>book_anchors</title>
<ellipse fill="none" stroke="#000000" cx="282.0854" cy="-255.4802" rx="100.9827" ry="18"/>
<text text-anchor="middle" x="282.0854" y="-251.7802" font-family="Times,serif" font-size="14.00" fill="#000000">book anchors (.anchors)</text>
</g>
<!-- sitemap&#45;&gt;book_anchors -->
<g id="edge9" class="edge">
<title>sitemap&#45;&gt;book_anchors</title>
<path fill="none" stroke="#000000" d="M280.0854,-590.8716C280.0854,-575.5003 280.0854,-552.8482 280.0854,-533.0904 280.0854,-533.0904 280.0854,-533.0904 280.0854,-345.3503 280.0854,-324.8012 280.6144,-301.6156 281.1284,-283.942"/>
<polygon fill="#000000" stroke="#000000" points="284.6335,-283.8253 281.4415,-273.7227 277.6368,-283.6108 284.6335,-283.8253"/>
</g>
<!-- the_markers -->
<g id="node8" class="node">
<title>the_markers</title>
<ellipse fill="none" stroke="#000000" cx="378.0854" cy="-533.0904" rx="70.0071" ry="26.7407"/>
<text text-anchor="middle" x="378.0854" y="-536.8904" font-family="Times,serif" font-size="14.00" fill="#000000">article markers</text>
<text text-anchor="middle" x="378.0854" y="-521.8904" font-family="Times,serif" font-size="14.00" fill="#000000">(.markers)</text>
</g>
<!-- sitemap&#45;&gt;the_markers -->
<g id="edge10" class="edge">
<title>sitemap&#45;&gt;the_markers</title>
<path fill="none" stroke="#000000" d="M302.8148,-591.3636C313.5758,-583.0327 326.7366,-572.8438 339.0264,-563.3292"/>
<polygon fill="#000000" stroke="#000000" points="341.1782,-566.0897 346.9429,-557.2004 336.893,-560.5546 341.1782,-566.0897"/>
</g>
<!-- book_dependencies -->
<g id="node6" class="node">
<title>book_dependencies</title>
<ellipse fill="none" stroke="#000000" cx="165.0854" cy="-102.7401" rx="165.1707" ry="18"/>
<text text-anchor="middle" x="165.0854" y="-99.0401" font-family="Times,serif" font-size="14.00" fill="#000000">book dependencies (.book.dependencies)</text>
</g>
<!-- book_deps&#45;&gt;book_dependencies -->
<g id="edge5" class="edge">
<title>book_deps&#45;&gt;book_dependencies</title>
<path fill="none" stroke="#000000" stroke-dasharray="1,5" d="M155.7534,-455.2173C154.5898,-437.9225 153.0854,-411.0505 153.0854,-387.7203 153.0854,-387.7203 153.0854,-387.7203 153.0854,-179.6102 153.0854,-163.3066 155.7531,-145.2883 158.5728,-130.7967"/>
<polygon fill="#000000" stroke="#000000" points="162.0127,-131.4452 160.617,-120.9427 155.1587,-130.0233 162.0127,-131.4452"/>
<text text-anchor="middle" x="173.5854" y="-292.2802" font-family="Times,serif" font-size="14.00" fill="#000000">defines</text>
</g>
<!-- result -->
<g id="node10" class="node">
<title>result</title>
<ellipse fill="none" stroke="#000000" cx="165.0854" cy="-26.8701" rx="120.4167" ry="26.7407"/>
<text text-anchor="middle" x="165.0854" y="-30.6701" font-family="Times,serif" font-size="14.00" fill="#000000">book export result</text>
<text text-anchor="middle" x="165.0854" y="-15.6701" font-family="Times,serif" font-size="14.00" fill="#000000">(.book.tex, .book.html, ...)</text>
</g>
<!-- book_dependencies&#45;&gt;result -->
<g id="edge13" class="edge">
<title>book_dependencies&#45;&gt;result</title>
<path fill="none" stroke="#000000" d="M165.0854,-84.3741C165.0854,-78.2453 165.0854,-71.1781 165.0854,-64.1413"/>
<polygon fill="#000000" stroke="#000000" points="168.5855,-63.9663 165.0854,-53.9663 161.5855,-63.9664 168.5855,-63.9663"/>
</g>
<!-- the_articles -->
<g id="node11" class="node">
<title>the_articles</title>
<ellipse fill="none" stroke="#000000" cx="522.0854" cy="-179.6102" rx="123.0732" ry="26.7407"/>
<text text-anchor="middle" x="522.0854" y="-183.4102" font-family="Times,serif" font-size="14.00" fill="#000000">exported articles</text>
<text text-anchor="middle" x="522.0854" y="-168.4102" font-family="Times,serif" font-size="14.00" fill="#000000">(.tex, .raw_html, .stats.yml)</text>
</g>
<!-- book_anchors&#45;&gt;the_articles -->
<g id="edge8" class="edge">
<title>book_anchors&#45;&gt;the_articles</title>
<path fill="none" stroke="#000000" d="M331.8135,-239.7599C363.7008,-229.6795 405.8096,-216.3679 442.3057,-204.8305"/>
<polygon fill="#000000" stroke="#000000" points="443.4641,-208.1351 451.944,-201.7836 441.3541,-201.4607 443.4641,-208.1351"/>
</g>
<!-- omitted -->
<g id="node13" class="node">
<title>omitted</title>
<ellipse fill="none" stroke="#000000" cx="515.0854" cy="-421.2203" rx="27" ry="18"/>
<text text-anchor="middle" x="515.0854" y="-417.5203" font-family="Times,serif" font-size="14.00" fill="#000000">...</text>
</g>
<!-- the_markers&#45;&gt;omitted -->
<g id="edge11" class="edge">
<title>the_markers&#45;&gt;omitted</title>
<path fill="none" stroke="#000000" d="M408.1506,-508.54C427.866,-492.441 453.8619,-471.2136 475.2856,-453.7196"/>
<polygon fill="#000000" stroke="#000000" points="477.718,-456.2521 483.2499,-447.2162 473.2905,-450.8301 477.718,-456.2521"/>
</g>
<!-- article_deps -->
<g id="node9" class="node">
<title>article_deps</title>
<ellipse fill="none" stroke="#000000" cx="617.0854" cy="-533.0904" rx="150.7276" ry="26.7407"/>
<text text-anchor="middle" x="617.0854" y="-536.8904" font-family="Times,serif" font-size="14.00" fill="#000000">other article dependencies</text>
<text text-anchor="middle" x="617.0854" y="-521.8904" font-family="Times,serif" font-size="14.00" fill="#000000">(article source, sections, media, ...)</text>
</g>
<!-- article_deps&#45;&gt;omitted -->
<g id="edge12" class="edge">
<title>article_deps&#45;&gt;omitted</title>
<path fill="none" stroke="#000000" d="M592.6538,-506.2947C578.6237,-490.907 560.8718,-471.4374 545.8919,-455.0079"/>
<polygon fill="#000000" stroke="#000000" points="548.1132,-452.2494 538.7893,-447.218 542.9405,-456.9657 548.1132,-452.2494"/>
</g>
<!-- the_articles&#45;&gt;book_dependencies -->
<g id="edge6" class="edge">
<title>the_articles&#45;&gt;book_dependencies</title>
<path fill="none" stroke="#000000" d="M434.2961,-160.7072C378.0104,-148.5876 305.3357,-132.9391 249.6848,-120.9563"/>
<polygon fill="#000000" stroke="#000000" points="250.3648,-117.5225 239.852,-118.8391 248.8912,-124.3657 250.3648,-117.5225"/>
</g>
<!-- the_anchors -->
<g id="node12" class="node">
<title>the_anchors</title>
<ellipse fill="none" stroke="#000000" cx="515.0854" cy="-345.3503" rx="108.375" ry="26.7407"/>
<text text-anchor="middle" x="515.0854" y="-349.1503" font-family="Times,serif" font-size="14.00" fill="#000000">article reference anchors</text>
<text text-anchor="middle" x="515.0854" y="-334.1503" font-family="Times,serif" font-size="14.00" fill="#000000">(.anchors)</text>
</g>
<!-- the_anchors&#45;&gt;book_anchors -->
<g id="edge7" class="edge">
<title>the_anchors&#45;&gt;book_anchors</title>
<path fill="none" stroke="#000000" d="M456.2896,-322.6723C418.6683,-308.1614 370.3062,-289.5077 334.0879,-275.5381"/>
<polygon fill="#000000" stroke="#000000" points="335.2752,-272.2447 324.6856,-271.9115 332.7561,-278.7758 335.2752,-272.2447"/>
</g>
<!-- the_anchors&#45;&gt;the_articles -->
<g id="edge15" class="edge">
<title>the_anchors&#45;&gt;the_articles</title>
<path fill="none" stroke="#000000" d="M516.2256,-318.3524C517.39,-290.7826 519.2067,-247.7696 520.5085,-216.9457"/>
<polygon fill="#000000" stroke="#000000" points="524.0204,-216.7353 520.9456,-206.5965 517.0266,-216.4399 524.0204,-216.7353"/>
</g>
<!-- omitted&#45;&gt;the_anchors -->
<g id="edge14" class="edge">
<title>omitted&#45;&gt;the_anchors</title>
<path fill="none" stroke="#000000" stroke-dasharray="5,2" d="M515.0854,-402.8543C515.0854,-396.7255 515.0854,-389.6583 515.0854,-382.6216"/>
<polygon fill="#000000" stroke="#000000" points="518.5855,-382.4465 515.0854,-372.4465 511.5855,-382.4466 518.5855,-382.4465"/>
</g>
<!-- omitted2 -->
<g id="node14" class="node">
<title>omitted2</title>
<ellipse fill="none" stroke="#000000" cx="476.0854" cy="-255.4802" rx="27" ry="18"/>
<text text-anchor="middle" x="476.0854" y="-251.7802" font-family="Times,serif" font-size="14.00" fill="#000000">...</text>
</g>
<!-- omitted2&#45;&gt;the_articles -->
<g id="edge16" class="edge">
<title>omitted2&#45;&gt;the_articles</title>
<path fill="none" stroke="#000000" stroke-dasharray="5,2" d="M486.2942,-238.6422C490.4928,-231.7173 495.5253,-223.417 500.4719,-215.2583"/>
<polygon fill="#000000" stroke="#000000" points="503.5706,-216.8983 505.7623,-206.5327 497.5848,-213.2692 503.5706,-216.8983"/>
</g>
</g>
</svg>
