<?xml version="1.0" encoding="UTF-8" standalone="no"?>
<!DOCTYPE svg PUBLIC "-//W3C//DTD SVG 1.1//EN"
 "http://www.w3.org/Graphics/SVG/1.1/DTD/svg11.dtd">
<!-- Generated by graphviz version 2.40.1 (20161225.0304)
 -->
<!-- Title: book_dependencies Pages: 1 -->
<svg width="772pt" height="808pt"
 viewBox="0.00 0.00 771.70 808.18" xmlns="http://www.w3.org/2000/svg" xmlns:xlink="http://www.w3.org/1999/xlink">
<g id="graph0" class="graph" transform="scale(1 1) rotate(0) translate(4 804.1808)">
<title>book_dependencies</title>
<polygon fill="#ffffff" stroke="transparent" points="-4,4 -4,-804.1808 767.6991,-804.1808 767.6991,4 -4,4"/>
<g id="clust1" class="cluster">
<title>cluster_articles</title>
<polygon fill="none" stroke="#000000" points="422.0854,-144.7401 422.0854,-366.2203 684.0854,-366.2203 684.0854,-144.7401 422.0854,-144.7401"/>
</g>
<!-- sitemap_article -->
<g id="node1" class="node">
<title>sitemap_article</title>
<ellipse fill="none" stroke="#000000" cx="284.0854" cy="-773.3107" rx="69.0935" ry="26.7407"/>
<text text-anchor="middle" x="284.0854" y="-777.1107" font-family="Times,serif" font-size="14.00" fill="#000000">sitemap article</text>
<text text-anchor="middle" x="284.0854" y="-762.1107" font-family="Times,serif" font-size="14.00" fill="#000000">source (.md)</text>
</g>
<!-- sitemap_intermediate -->
<g id="node2" class="node">
<title>sitemap_intermediate</title>
<ellipse fill="none" stroke="#000000" cx="284.0854" cy="-688.5706" rx="95.4188" ry="26.7407"/>
<text text-anchor="middle" x="284.0854" y="-692.3706" font-family="Times,serif" font-size="14.00" fill="#000000">sitemap intermediate</text>
<text text-anchor="middle" x="284.0854" y="-677.3706" font-family="Times,serif" font-size="14.00" fill="#000000">representation (.yml)</text>
</g>
<!-- sitemap_article&#45;&gt;sitemap_intermediate -->
<g id="edge1" class="edge">
<title>sitemap_article&#45;&gt;sitemap_intermediate</title>
<path fill="none" stroke="#000000" d="M284.0854,-746.032C284.0854,-739.6182 284.0854,-732.6737 284.0854,-725.9032"/>
<polygon fill="#000000" stroke="#000000" points="287.5854,-725.5084 284.0854,-715.5085 280.5854,-725.5085 287.5854,-725.5084"/>
</g>
<!-- sitemap_parsed -->
<g id="node3" class="node">
<title>sitemap_parsed</title>
<ellipse fill="none" stroke="#000000" cx="284.0854" cy="-603.8305" rx="132.4583" ry="26.7407"/>
<text text-anchor="middle" x="284.0854" y="-607.6305" font-family="Times,serif" font-size="14.00" fill="#000000">machine readable</text>
<text text-anchor="middle" x="284.0854" y="-592.6305" font-family="Times,serif" font-size="14.00" fill="#000000">sitemap (.sitemap.parsed.yml)</text>
</g>
<!-- sitemap_intermediate&#45;&gt;sitemap_parsed -->
<g id="edge2" class="edge">
<title>sitemap_intermediate&#45;&gt;sitemap_parsed</title>
<path fill="none" stroke="#000000" d="M284.0854,-661.2919C284.0854,-654.8781 284.0854,-647.9336 284.0854,-641.1631"/>
<polygon fill="#000000" stroke="#000000" points="287.5854,-640.7683 284.0854,-630.7684 280.5854,-640.7684 287.5854,-640.7683"/>
</g>
<!-- sitemap -->
<g id="node4" class="node">
<title>sitemap</title>
<ellipse fill="none" stroke="#000000" cx="284.0854" cy="-527.9605" rx="94.7833" ry="18"/>
<text text-anchor="middle" x="284.0854" y="-524.2605" font-family="Times,serif" font-size="14.00" fill="#000000">sitemap (.sitemap.yml)</text>
</g>
<!-- sitemap_parsed&#45;&gt;sitemap -->
<g id="edge3" class="edge">
<title>sitemap_parsed&#45;&gt;sitemap</title>
<path fill="none" stroke="#000000" d="M284.0854,-576.8679C284.0854,-570.1597 284.0854,-562.9505 284.0854,-556.1834"/>
<polygon fill="#000000" stroke="#000000" points="287.5855,-556.0488 284.0854,-546.0489 280.5855,-556.0489 287.5855,-556.0488"/>
</g>
<!-- book_deps -->
<g id="node5" class="node">
<title>book_deps</title>
<polygon fill="none" stroke="#000000" points="262.0854,-410.2203 50.0854,-410.2203 50.0854,-374.2203 262.0854,-374.2203 262.0854,-410.2203"/>
<text text-anchor="middle" x="156.0854" y="-388.5203" font-family="Times,serif" font-size="14.00" fill="#000000">book dependency file (.book.dep)</text>
</g>
<!-- sitemap&#45;&gt;book_deps -->
<g id="edge4" class="edge">
<title>sitemap&#45;&gt;book_deps</title>
<path fill="none" stroke="#000000" d="M267.3516,-510.2148C245.1478,-486.6684 205.7948,-444.9357 180.3353,-417.9366"/>
<polygon fill="#000000" stroke="#000000" points="182.6388,-415.2779 173.2318,-410.4036 177.546,-420.0803 182.6388,-415.2779"/>
</g>
<!-- book_anchors -->
<g id="node7" class="node">
<title>book_anchors</title>
<ellipse fill="none" stroke="#000000" cx="313.0854" cy="-255.4802" rx="100.9827" ry="18"/>
<text text-anchor="middle" x="313.0854" y="-251.7802" font-family="Times,serif" font-size="14.00" fill="#000000">book anchors (.anchors)</text>
</g>
<!-- sitemap&#45;&gt;book_anchors -->
<g id="edge9" class="edge">
<title>sitemap&#45;&gt;book_anchors</title>
<path fill="none" stroke="#000000" d="M286.0332,-509.6592C290.986,-463.1231 304.0896,-340.0033 310.0531,-283.9712"/>
<polygon fill="#000000" stroke="#000000" points="313.568,-284.0162 311.146,-273.7019 306.6073,-283.2753 313.568,-284.0162"/>
</g>
<!-- the_markers -->
<g id="node8" class="node">
<title>the_markers</title>
<ellipse fill="none" stroke="#000000" cx="378.0854" cy="-452.0904" rx="66.4361" ry="26.7407"/>
<text text-anchor="middle" x="378.0854" y="-455.8904" font-family="Times,serif" font-size="14.00" fill="#000000">article marker</text>
<text text-anchor="middle" x="378.0854" y="-440.8904" font-family="Times,serif" font-size="14.00" fill="#000000">(.markers)</text>
</g>
<!-- sitemap&#45;&gt;the_markers -->
<g id="edge10" class="edge">
<title>sitemap&#45;&gt;the_markers</title>
<path fill="none" stroke="#000000" d="M305.8871,-510.3636C316.1105,-502.1121 328.5922,-492.0377 340.2837,-482.6012"/>
<polygon fill="#000000" stroke="#000000" points="342.6307,-485.2047 348.214,-476.2004 338.2342,-479.7576 342.6307,-485.2047"/>
</g>
<!-- book_dependencies -->
<g id="node6" class="node">
<title>book_dependencies</title>
<ellipse fill="none" stroke="#000000" cx="165.0854" cy="-102.7401" rx="165.1707" ry="18"/>
<text text-anchor="middle" x="165.0854" y="-99.0401" font-family="Times,serif" font-size="14.00" fill="#000000">book dependencies (.book.dependencies)</text>
</g>
<!-- book_deps&#45;&gt;book_dependencies -->
<g id="edge5" class="edge">
<title>book_deps&#45;&gt;book_dependencies</title>
<path fill="none" stroke="#000000" stroke-dasharray="1,5" d="M155.2337,-373.9488C154.3468,-353.3188 153.0854,-318.746 153.0854,-288.9802 153.0854,-288.9802 153.0854,-288.9802 153.0854,-179.6102 153.0854,-163.3066 155.7531,-145.2883 158.5728,-130.7967"/>
<polygon fill="#000000" stroke="#000000" points="162.0127,-131.4452 160.617,-120.9427 155.1587,-130.0233 162.0127,-131.4452"/>
<text text-anchor="middle" x="173.5854" y="-251.7802" font-family="Times,serif" font-size="14.00" fill="#000000">defines</text>
</g>
<!-- result -->
<g id="node10" class="node">
<title>result</title>
<ellipse fill="none" stroke="#000000" cx="165.0854" cy="-26.8701" rx="120.4167" ry="26.7407"/>
<text text-anchor="middle" x="165.0854" y="-30.6701" font-family="Times,serif" font-size="14.00" fill="#000000">book export result</text>
<text text-anchor="middle" x="165.0854" y="-15.6701" font-family="Times,serif" font-size="14.00" fill="#000000">(.book.tex, .book.html, ...)</text>
</g>
<!-- book_dependencies&#45;&gt;result -->
<g id="edge13" class="edge">
<title>book_dependencies&#45;&gt;result</title>
<path fill="none" stroke="#000000" d="M165.0854,-84.3741C165.0854,-78.2453 165.0854,-71.1781 165.0854,-64.1413"/>
<polygon fill="#000000" stroke="#000000" points="168.5855,-63.9663 165.0854,-53.9663 161.5855,-63.9664 168.5855,-63.9663"/>
</g>
<!-- the_articles -->
<g id="node11" class="node">
<title>the_articles</title>
<ellipse fill="none" stroke="#000000" cx="553.0854" cy="-179.6102" rx="123.0732" ry="26.7407"/>
<text text-anchor="middle" x="553.0854" y="-183.4102" font-family="Times,serif" font-size="14.00" fill="#000000">exported articles</text>
<text text-anchor="middle" x="553.0854" y="-168.4102" font-family="Times,serif" font-size="14.00" fill="#000000">(.tex, .raw_html, .stats.yml)</text>
</g>
<!-- book_anchors&#45;&gt;the_articles -->
<g id="edge8" class="edge">
<title>book_anchors&#45;&gt;the_articles</title>
<path fill="none" stroke="#000000" d="M362.8135,-239.7599C394.7008,-229.6795 436.8096,-216.3679 473.3057,-204.8305"/>
<polygon fill="#000000" stroke="#000000" points="474.4641,-208.1351 482.944,-201.7836 472.3541,-201.4607 474.4641,-208.1351"/>
</g>
<!-- the_anchors -->
<g id="node12" class="node">
<title>the_anchors</title>
<ellipse fill="none" stroke="#000000" cx="545.0854" cy="-331.3503" rx="108.375" ry="26.7407"/>
<text text-anchor="middle" x="545.0854" y="-335.1503" font-family="Times,serif" font-size="14.00" fill="#000000">article reference anchors</text>
<text text-anchor="middle" x="545.0854" y="-320.1503" font-family="Times,serif" font-size="14.00" fill="#000000">(.anchors)</text>
</g>
<!-- the_markers&#45;&gt;the_anchors -->
<g id="edge11" class="edge">
<title>the_markers&#45;&gt;the_anchors</title>
<path fill="none" stroke="#000000" d="M410.6811,-428.5239C432.8077,-412.5264 462.6461,-390.9534 488.5877,-372.1978"/>
<polygon fill="#000000" stroke="#000000" points="490.8055,-374.9133 496.8587,-366.2179 486.7042,-369.2406 490.8055,-374.9133"/>
</g>
<!-- article_deps -->
<g id="node9" class="node">
<title>article_deps</title>
<ellipse fill="none" stroke="#000000" cx="613.0854" cy="-452.0904" rx="150.7276" ry="26.7407"/>
<text text-anchor="middle" x="613.0854" y="-455.8904" font-family="Times,serif" font-size="14.00" fill="#000000">other article dependencies</text>
<text text-anchor="middle" x="613.0854" y="-440.8904" font-family="Times,serif" font-size="14.00" fill="#000000">(article source, sections, media, ...)</text>
</g>
<!-- article_deps&#45;&gt;the_anchors -->
<g id="edge12" class="edge">
<title>article_deps&#45;&gt;the_anchors</title>
<path fill="none" stroke="#000000" d="M597.9939,-425.2943C588.3099,-408.0993 575.6249,-385.5761 565.1033,-366.894"/>
<polygon fill="#000000" stroke="#000000" points="574.3431,-369.0563 564.1346,-366.2203 570.3465,-374.8034 574.3431,-369.0563"/>
</g>
<!-- the_articles&#45;&gt;book_dependencies -->
<g id="edge6" class="edge">
<title>the_articles&#45;&gt;book_dependencies</title>
<path fill="none" stroke="#000000" d="M461.6261,-161.4904C399.2311,-149.1288 316.9771,-132.8327 254.9289,-120.5398"/>
<polygon fill="#000000" stroke="#000000" points="255.2506,-117.0356 244.761,-118.5254 253.8901,-123.9021 255.2506,-117.0356"/>
</g>
<!-- the_anchors&#45;&gt;book_anchors -->
<g id="edge7" class="edge">
<title>the_anchors&#45;&gt;book_anchors</title>
<path fill="none" stroke="#000000" d="M479.5337,-309.9132C445.5327,-298.794 404.35,-285.3262 371.4557,-274.5689"/>
<polygon fill="#000000" stroke="#000000" points="372.1229,-271.1047 361.5304,-271.323 369.9471,-277.758 372.1229,-271.1047"/>
</g>
<!-- the_anchors&#45;&gt;the_articles -->
<g id="edge14" class="edge">
<title>the_anchors&#45;&gt;the_articles</title>
<path fill="none" stroke="#000000" d="M546.5156,-304.2222C547.8011,-279.8392 549.7007,-243.8088 551.127,-216.7545"/>
<polygon fill="#000000" stroke="#000000" points="554.6361,-216.6738 551.6675,-206.5034 547.6458,-216.3052 554.6361,-216.6738"/>
</g>
</g>
</svg>
