<?xml version="1.0" encoding="UTF-8" standalone="no"?>
<!DOCTYPE svg PUBLIC "-//W3C//DTD SVG 1.1//EN"
 "http://www.w3.org/Graphics/SVG/1.1/DTD/svg11.dtd">
<!-- Generated by graphviz version 2.40.1 (20161225.0304)
 -->
<!-- Title: article_dependencies Pages: 1 -->
<svg width="813pt" height="800pt"
 viewBox="0.00 0.00 812.81 800.18" xmlns="http://www.w3.org/2000/svg" xmlns:xlink="http://www.w3.org/1999/xlink">
<g id="graph0" class="graph" transform="scale(1 1) rotate(0) translate(4 796.1808)">
<title>article_dependencies</title>
<polygon fill="#ffffff" stroke="transparent" points="-4,4 -4,-796.1808 808.8097,-796.1808 808.8097,4 -4,4"/>
<!-- pre_media -->
<!-- the_media -->
<g id="node2" class="node">
<title>the_media</title>
<ellipse fill="none" stroke="#000000" cx="113.8442" cy="-111.6102" rx="113.6886" ry="26.7407"/>
<text text-anchor="middle" x="113.8442" y="-115.4102" font-family="Times,serif" font-size="14.00" fill="#000000">media files used in article</text>
<text text-anchor="middle" x="113.8442" y="-100.4102" font-family="Times,serif" font-size="14.00" fill="#000000">(.svg, .webm, ...)</text>
</g>
<!-- pre_media&#45;&gt;the_media -->
<g id="edge14" class="edge">
<title>pre_media&#45;&gt;the_media</title>
<path fill="none" stroke="#000000" d="M113.8442,-223.1986C113.8442,-203.966 113.8442,-172.9622 113.8442,-148.5101"/>
<polygon fill="#000000" stroke="#000000" points="117.3443,-148.4851 113.8442,-138.4852 110.3443,-148.4852 117.3443,-148.4851"/>
<text text-anchor="middle" x="142.8442" y="-176.6503" font-family="Times,serif" font-size="14.00" fill="#000000">download</text>
</g>
<!-- media -->
<g id="node13" class="node">
<title>media</title>
<ellipse fill="#c0c0c0" stroke="#000000" cx="396.8442" cy="-111.6102" rx="113.2743" ry="26.7407"/>
<text text-anchor="middle" x="396.8442" y="-115.4102" font-family="Times,serif" font-size="14.00" fill="#000000">media intermediate target</text>
<text text-anchor="middle" x="396.8442" y="-100.4102" font-family="Times,serif" font-size="14.00" fill="#000000">(.media)</text>
</g>
<!-- the_media&#45;&gt;media -->
<g id="edge16" class="edge">
<title>the_media&#45;&gt;media</title>
<path fill="none" stroke="#000000" d="M227.7075,-111.6102C242.973,-111.6102 258.2386,-111.6102 273.5042,-111.6102"/>
<polygon fill="#000000" stroke="#000000" points="273.5358,-115.1103 283.5358,-111.6102 273.5358,-108.1103 273.5358,-115.1103"/>
</g>
<!-- pre_markers -->
<!-- markers -->
<g id="node4" class="node">
<title>markers</title>
<ellipse fill="none" stroke="#000000" cx="263.8442" cy="-585.5706" rx="101.2327" ry="26.7407"/>
<text text-anchor="middle" x="263.8442" y="-589.3706" font-family="Times,serif" font-size="14.00" fill="#000000">article marker dummy</text>
<text text-anchor="middle" x="263.8442" y="-574.3706" font-family="Times,serif" font-size="14.00" fill="#000000">(.markers)</text>
</g>
<!-- pre_markers&#45;&gt;markers -->
<g id="edge1" class="edge">
<title>pre_markers&#45;&gt;markers</title>
<path fill="none" stroke="#000000" d="M263.8442,-666.2003C263.8442,-653.9867 263.8442,-637.437 263.8442,-622.5092"/>
<polygon fill="#000000" stroke="#000000" points="267.3443,-622.5069 263.8442,-612.507 260.3443,-622.507 267.3443,-622.5069"/>
<text text-anchor="middle" x="322.3442" y="-631.2407" font-family="Times,serif" font-size="14.00" fill="#000000">extract from sitemap</text>
</g>
<!-- section_dep -->
<g id="node7" class="node">
<title>section_dep</title>
<polygon fill="none" stroke="#000000" points="465.3442,-527.7006 328.3442,-527.7006 328.3442,-489.7006 465.3442,-489.7006 465.3442,-527.7006"/>
<text text-anchor="middle" x="396.8442" y="-512.5006" font-family="Times,serif" font-size="14.00" fill="#000000">section dependencies</text>
<text text-anchor="middle" x="396.8442" y="-497.5006" font-family="Times,serif" font-size="14.00" fill="#000000">(.section&#45;dep)</text>
</g>
<!-- markers&#45;&gt;section_dep -->
<g id="edge4" class="edge">
<title>markers&#45;&gt;section_dep</title>
<path fill="none" stroke="#000000" d="M306.2919,-561.0371C321.7981,-552.075 339.3206,-541.9475 354.7921,-533.0054"/>
<polygon fill="#000000" stroke="#000000" points="356.7273,-535.9296 363.6338,-527.8952 353.2244,-529.869 356.7273,-535.9296"/>
</g>
<!-- composed -->
<g id="node12" class="node">
<title>composed</title>
<ellipse fill="none" stroke="#000000" cx="396.8442" cy="-318.0904" rx="161.8549" ry="26.7407"/>
<text text-anchor="middle" x="396.8442" y="-321.8904" font-family="Times,serif" font-size="14.00" fill="#000000">intermediate representation</text>
<text text-anchor="middle" x="396.8442" y="-306.8904" font-family="Times,serif" font-size="14.00" fill="#000000">for complete article (.composed.json)</text>
</g>
<!-- markers&#45;&gt;composed -->
<g id="edge7" class="edge">
<title>markers&#45;&gt;composed</title>
<path fill="none" stroke="#000000" d="M255.94,-558.761C245.0813,-516.1271 230.8132,-431.9804 267.8442,-375.9605 276.0926,-363.4825 287.7234,-353.6659 300.6592,-345.9508"/>
<polygon fill="#000000" stroke="#000000" points="302.713,-348.8162 309.7976,-340.9384 299.3467,-342.6788 302.713,-348.8162"/>
</g>
<!-- pre_sections -->
<!-- the_sections -->
<g id="node8" class="node">
<title>the_sections</title>
<ellipse fill="none" stroke="#000000" cx="688.8442" cy="-402.8305" rx="115.931" ry="26.7407"/>
<text text-anchor="middle" x="688.8442" y="-406.6305" font-family="Times,serif" font-size="14.00" fill="#000000">fragments of other articles</text>
<text text-anchor="middle" x="688.8442" y="-391.6305" font-family="Times,serif" font-size="14.00" fill="#000000">(.json)</text>
</g>
<!-- pre_sections&#45;&gt;the_sections -->
<g id="edge15" class="edge">
<title>pre_sections&#45;&gt;the_sections</title>
<path fill="none" stroke="#000000" d="M688.8442,-490.2594C688.8442,-476.4243 688.8442,-457.0212 688.8442,-440.0076"/>
<polygon fill="#000000" stroke="#000000" points="692.3443,-439.7942 688.8442,-429.7942 685.3443,-439.7943 692.3443,-439.7942"/>
<text text-anchor="middle" x="725.3442" y="-463.5006" font-family="Times,serif" font-size="14.00" fill="#000000">extract from</text>
<text text-anchor="middle" x="725.3442" y="-448.5006" font-family="Times,serif" font-size="14.00" fill="#000000">other articles</text>
</g>
<!-- sections -->
<g id="node6" class="node">
<title>sections</title>
<ellipse fill="#c0c0c0" stroke="#000000" cx="396.8442" cy="-402.8305" rx="120.4167" ry="26.7407"/>
<text text-anchor="middle" x="396.8442" y="-406.6305" font-family="Times,serif" font-size="14.00" fill="#000000">sections intermediate target</text>
<text text-anchor="middle" x="396.8442" y="-391.6305" font-family="Times,serif" font-size="14.00" fill="#000000">(.sections)</text>
</g>
<!-- sections&#45;&gt;the_sections -->
<g id="edge17" class="edge">
<title>sections&#45;&gt;the_sections</title>
<path fill="none" stroke="#000000" d="M527.1809,-402.8305C542.3996,-402.8305 557.6182,-402.8305 572.8368,-402.8305"/>
<polygon fill="#000000" stroke="#000000" points="527.1802,-399.3306 517.1801,-402.8305 527.1801,-406.3306 527.1802,-399.3306"/>
</g>
<!-- sections&#45;&gt;composed -->
<g id="edge6" class="edge">
<title>sections&#45;&gt;composed</title>
<path fill="none" stroke="#000000" d="M396.8442,-375.5518C396.8442,-369.138 396.8442,-362.1934 396.8442,-355.423"/>
<polygon fill="#000000" stroke="#000000" points="400.3443,-355.0282 396.8442,-345.0282 393.3443,-355.0283 400.3443,-355.0282"/>
</g>
<!-- section_dep&#45;&gt;sections -->
<g id="edge2" class="edge">
<title>section_dep&#45;&gt;sections</title>
<path fill="none" stroke="#000000" stroke-dasharray="1,5" d="M396.8442,-489.2824C396.8442,-475.6691 396.8442,-457.032 396.8442,-440.5469"/>
<polygon fill="#000000" stroke="#000000" points="400.3443,-440.099 396.8442,-430.099 393.3443,-440.099 400.3443,-440.099"/>
<text text-anchor="middle" x="417.3442" y="-456.0006" font-family="Times,serif" font-size="14.00" fill="#000000">defines</text>
</g>
<!-- md -->
<g id="node9" class="node">
<title>md</title>
<ellipse fill="none" stroke="#000000" cx="530.8442" cy="-774.1808" rx="81.7856" ry="18"/>
<text text-anchor="middle" x="530.8442" y="-770.4808" font-family="Times,serif" font-size="14.00" fill="#000000">article source (.md)</text>
</g>
<!-- raw_json -->
<g id="node10" class="node">
<title>raw_json</title>
<ellipse fill="none" stroke="#000000" cx="530.8442" cy="-684.3107" rx="64.1938" ry="26.7407"/>
<text text-anchor="middle" x="530.8442" y="-688.1107" font-family="Times,serif" font-size="14.00" fill="#000000">parsed article</text>
<text text-anchor="middle" x="530.8442" y="-673.1107" font-family="Times,serif" font-size="14.00" fill="#000000">(.raw.json)</text>
</g>
<!-- md&#45;&gt;raw_json -->
<g id="edge18" class="edge">
<title>md&#45;&gt;raw_json</title>
<path fill="none" stroke="#000000" d="M530.8442,-755.9943C530.8442,-746.0769 530.8442,-733.4265 530.8442,-721.5218"/>
<polygon fill="#000000" stroke="#000000" points="534.3443,-721.3394 530.8442,-711.3395 527.3443,-721.3395 534.3443,-721.3394"/>
<text text-anchor="middle" x="545.8442" y="-729.9808" font-family="Times,serif" font-size="14.00" fill="#000000">parse</text>
</g>
<!-- json -->
<g id="node11" class="node">
<title>json</title>
<ellipse fill="none" stroke="#000000" cx="530.8442" cy="-585.5706" rx="120.4167" ry="26.7407"/>
<text text-anchor="middle" x="530.8442" y="-589.3706" font-family="Times,serif" font-size="14.00" fill="#000000">intermediate representation</text>
<text text-anchor="middle" x="530.8442" y="-574.3706" font-family="Times,serif" font-size="14.00" fill="#000000">(.json)</text>
</g>
<!-- raw_json&#45;&gt;json -->
<g id="edge19" class="edge">
<title>raw_json&#45;&gt;json</title>
<path fill="none" stroke="#000000" d="M530.8442,-657.3296C530.8442,-646.6626 530.8442,-634.2265 530.8442,-622.7324"/>
<polygon fill="#000000" stroke="#000000" points="534.3443,-622.5191 530.8442,-612.5192 527.3443,-622.5192 534.3443,-622.5191"/>
<text text-anchor="middle" x="559.3442" y="-631.2407" font-family="Times,serif" font-size="14.00" fill="#000000">normalize</text>
</g>
<!-- json&#45;&gt;section_dep -->
<g id="edge3" class="edge">
<title>json&#45;&gt;section_dep</title>
<path fill="none" stroke="#000000" d="M486.9676,-560.4005C471.5266,-551.5427 454.218,-541.6135 438.9282,-532.8424"/>
<polygon fill="#000000" stroke="#000000" points="440.6041,-529.7688 430.1884,-527.8287 437.1209,-535.8407 440.6041,-529.7688"/>
</g>
<!-- json&#45;&gt;composed -->
<g id="edge5" class="edge">
<title>json&#45;&gt;composed</title>
<path fill="none" stroke="#000000" d="M538.5901,-558.7416C549.2032,-516.0809 563.0124,-431.8976 525.8442,-375.9605 517.4308,-363.2985 505.538,-353.376 492.3418,-345.6086"/>
<polygon fill="#000000" stroke="#000000" points="493.9631,-342.5063 483.5052,-340.8084 490.6217,-348.6574 493.9631,-342.5063"/>
</g>
<!-- media_dep -->
<g id="node14" class="node">
<title>media_dep</title>
<polygon fill="none" stroke="#000000" points="462.3442,-260.2203 331.3442,-260.2203 331.3442,-222.2203 462.3442,-222.2203 462.3442,-260.2203"/>
<text text-anchor="middle" x="396.8442" y="-245.0203" font-family="Times,serif" font-size="14.00" fill="#000000">media dependencies</text>
<text text-anchor="middle" x="396.8442" y="-230.0203" font-family="Times,serif" font-size="14.00" fill="#000000">(.media&#45;dep)</text>
</g>
<!-- composed&#45;&gt;media_dep -->
<g id="edge8" class="edge">
<title>composed&#45;&gt;media_dep</title>
<path fill="none" stroke="#000000" d="M396.8442,-291.205C396.8442,-284.4997 396.8442,-277.2773 396.8442,-270.4643"/>
<polygon fill="#000000" stroke="#000000" points="400.3443,-270.2281 396.8442,-260.2281 393.3443,-270.2281 400.3443,-270.2281"/>
</g>
<!-- anchors -->
<g id="node15" class="node">
<title>anchors</title>
<ellipse fill="none" stroke="#000000" cx="530.8442" cy="-180.3503" rx="82.0488" ry="26.7407"/>
<text text-anchor="middle" x="530.8442" y="-184.1503" font-family="Times,serif" font-size="14.00" fill="#000000">reference anchors</text>
<text text-anchor="middle" x="530.8442" y="-169.1503" font-family="Times,serif" font-size="14.00" fill="#000000">(.anchors)</text>
</g>
<!-- composed&#45;&gt;anchors -->
<g id="edge11" class="edge">
<title>composed&#45;&gt;anchors</title>
<path fill="none" stroke="#000000" d="M435.1685,-291.7501C447.4891,-282.4589 460.7976,-271.5008 471.8442,-260.2203 485.1535,-246.6292 497.9508,-229.9156 508.2048,-215.2964"/>
<polygon fill="#000000" stroke="#000000" points="511.1485,-217.1927 513.933,-206.9703 505.3815,-213.2251 511.1485,-217.1927"/>
</g>
<!-- result -->
<g id="node16" class="node">
<title>result</title>
<ellipse fill="none" stroke="#000000" cx="396.8442" cy="-26.8701" rx="92.7622" ry="26.7407"/>
<text text-anchor="middle" x="396.8442" y="-30.6701" font-family="Times,serif" font-size="14.00" fill="#000000">exported article</text>
<text text-anchor="middle" x="396.8442" y="-15.6701" font-family="Times,serif" font-size="14.00" fill="#000000">(.tex, .raw_html, ...)</text>
</g>
<!-- composed&#45;&gt;result -->
<g id="edge10" class="edge">
<title>composed&#45;&gt;result</title>
<path fill="none" stroke="#000000" d="M354.6914,-291.9078C342.8582,-282.9952 330.7942,-272.2155 321.8442,-260.2203 273.5601,-195.5085 231.6868,-152.9781 274.8442,-84.7401 284.8354,-68.9426 300.4379,-57.3719 317.187,-48.9274"/>
<polygon fill="#000000" stroke="#000000" points="318.9952,-51.9463 326.5817,-44.5507 316.0391,-45.6011 318.9952,-51.9463"/>
</g>
<!-- media&#45;&gt;result -->
<g id="edge13" class="edge">
<title>media&#45;&gt;result</title>
<path fill="none" stroke="#000000" d="M396.8442,-84.3314C396.8442,-77.9176 396.8442,-70.9731 396.8442,-64.2026"/>
<polygon fill="#000000" stroke="#000000" points="400.3443,-63.8079 396.8442,-53.8079 393.3443,-63.8079 400.3443,-63.8079"/>
</g>
<!-- media_dep&#45;&gt;media -->
<g id="edge9" class="edge">
<title>media_dep&#45;&gt;media</title>
<path fill="none" stroke="#000000" stroke-dasharray="1,5" d="M396.8442,-222.0959C396.8442,-202.8354 396.8442,-172.6215 396.8442,-148.6543"/>
<polygon fill="#000000" stroke="#000000" points="400.3443,-148.4802 396.8442,-138.4802 393.3443,-148.4803 400.3443,-148.4802"/>
<text text-anchor="middle" x="417.3442" y="-176.6503" font-family="Times,serif" font-size="14.00" fill="#000000">defines</text>
</g>
<!-- anchors&#45;&gt;result -->
<g id="edge12" class="edge">
<title>anchors&#45;&gt;result</title>
<path fill="none" stroke="#000000" d="M534.0526,-153.097C535.0253,-132.4557 533.064,-104.3925 518.8442,-84.7401 507.771,-69.4365 491.5816,-58.0334 474.5939,-49.5916"/>
<polygon fill="#000000" stroke="#000000" points="475.647,-46.2224 465.1016,-45.2004 472.708,-52.5756 475.647,-46.2224"/>
</g>
</g>
</svg>
