<?xml version="1.0" encoding="UTF-8" standalone="no"?>
<!DOCTYPE svg PUBLIC "-//W3C//DTD SVG 1.1//EN"
 "http://www.w3.org/Graphics/SVG/1.1/DTD/svg11.dtd">
<!-- Generated by graphviz version 2.40.1 (20161225.0304)
 -->
<!-- Title: build_process Pages: 1 -->
<svg width="782pt" height="396pt"
 viewBox="0.00 0.00 781.58 395.74" xmlns="http://www.w3.org/2000/svg" xmlns:xlink="http://www.w3.org/1999/xlink">
<g id="graph0" class="graph" transform="scale(1 1) rotate(0) translate(4 391.7401)">
<title>build_process</title>
<polygon fill="#ffffff" stroke="transparent" points="-4,4 -4,-391.7401 777.5842,-391.7401 777.5842,4 -4,4"/>
<!-- start -->
<!-- parse_targets -->
<g id="node2" class="node">
<title>parse_targets</title>
<ellipse fill="none" stroke="#000000" cx="429.5" cy="-282.7401" rx="124.2781" ry="18"/>
<text text-anchor="middle" x="429.5" y="-279.0401" font-family="Times,serif" font-size="14.00" fill="#000000">Parse $(MAKECMDGOALS)</text>
</g>
<!-- start&#45;&gt;parse_targets -->
<g id="edge1" class="edge">
<title>start&#45;&gt;parse_targets</title>
<path fill="none" stroke="#000000" d="M429.5,-351.7137C429.5,-339.9319 429.5,-324.3008 429.5,-310.8982"/>
<polygon fill="#000000" stroke="#000000" points="433.0001,-310.7434 429.5,-300.7435 426.0001,-310.7435 433.0001,-310.7434"/>
<text text-anchor="middle" x="477.5" y="-322.5401" font-family="Times,serif" font-size="14.00" fill="#000000">make invocation</text>
</g>
<!-- book_include -->
<g id="node3" class="node">
<title>book_include</title>
<ellipse fill="none" stroke="#000000" cx="265.5" cy="-209.7401" rx="133.7763" ry="18"/>
<text text-anchor="middle" x="265.5" y="-206.0401" font-family="Times,serif" font-size="14.00" fill="#000000">&#45;include $(BOOK_DEP_FILES)</text>
</g>
<!-- parse_targets&#45;&gt;book_include -->
<g id="edge2" class="edge">
<title>parse_targets&#45;&gt;book_include</title>
<path fill="none" stroke="#000000" d="M391.0493,-265.6249C367.8791,-255.3113 338.1739,-242.0888 313.475,-231.0948"/>
<polygon fill="#000000" stroke="#000000" points="314.8372,-227.8702 304.2781,-227.0011 311.9906,-234.2652 314.8372,-227.8702"/>
</g>
<!-- article_include -->
<g id="node4" class="node">
<title>article_include</title>
<ellipse fill="none" stroke="#000000" cx="595.5" cy="-209.7401" rx="178.1684" ry="18"/>
<text text-anchor="middle" x="595.5" y="-206.0401" font-family="Times,serif" font-size="14.00" fill="#000000">&#45;include $(ARTICLE_BOOK_DEP_FILES)</text>
</g>
<!-- parse_targets&#45;&gt;article_include -->
<g id="edge3" class="edge">
<title>parse_targets&#45;&gt;article_include</title>
<path fill="none" stroke="#000000" d="M468.4196,-265.6249C491.6174,-255.4234 521.287,-242.376 546.123,-231.4541"/>
<polygon fill="#000000" stroke="#000000" points="547.6363,-234.6121 555.3814,-227.3826 544.8184,-228.2044 547.6363,-234.6121"/>
</g>
<!-- book_dependencies -->
<g id="node5" class="node">
<title>book_dependencies</title>
<ellipse fill="none" stroke="#000000" cx="265.5" cy="-113.8701" rx="155.627" ry="26.7407"/>
<text text-anchor="middle" x="265.5" y="-117.6701" font-family="Times,serif" font-size="14.00" fill="#000000">rule for book</text>
<text text-anchor="middle" x="265.5" y="-102.6701" font-family="Times,serif" font-size="14.00" fill="#000000">dependencies (.book.dependencies)</text>
</g>
<!-- book_include&#45;&gt;book_dependencies -->
<g id="edge4" class="edge">
<title>book_include&#45;&gt;book_dependencies</title>
<path fill="none" stroke="#000000" stroke-dasharray="1,5" d="M265.5,-191.7077C265.5,-180.2968 265.5,-165.1218 265.5,-151.2025"/>
<polygon fill="#000000" stroke="#000000" points="269.0001,-150.8862 265.5,-140.8862 262.0001,-150.8863 269.0001,-150.8862"/>
<text text-anchor="middle" x="286" y="-162.5401" font-family="Times,serif" font-size="14.00" fill="#000000">defines</text>
</g>
<!-- article_media -->
<g id="node6" class="node">
<title>article_media</title>
<ellipse fill="none" stroke="#000000" cx="543.5" cy="-113.8701" rx="62.8651" ry="26.7407"/>
<text text-anchor="middle" x="543.5" y="-117.6701" font-family="Times,serif" font-size="14.00" fill="#000000">article media</text>
<text text-anchor="middle" x="543.5" y="-102.6701" font-family="Times,serif" font-size="14.00" fill="#000000">(.media)</text>
</g>
<!-- article_include&#45;&gt;article_media -->
<g id="edge5" class="edge">
<title>article_include&#45;&gt;article_media</title>
<path fill="none" stroke="#000000" stroke-dasharray="1,5" d="M578.9777,-191.4848C574.5523,-186.0271 570.0243,-179.8605 566.5,-173.7401 562.2733,-166.3998 558.5277,-158.1355 555.3505,-150.1444"/>
<polygon fill="#000000" stroke="#000000" points="558.5612,-148.7388 551.7627,-140.6129 552.01,-151.2049 558.5612,-148.7388"/>
<text text-anchor="middle" x="587" y="-162.5401" font-family="Times,serif" font-size="14.00" fill="#000000">defines</text>
</g>
<!-- article_sections -->
<g id="node7" class="node">
<title>article_sections</title>
<ellipse fill="none" stroke="#000000" cx="694.5" cy="-113.8701" rx="70.0071" ry="26.7407"/>
<text text-anchor="middle" x="694.5" y="-117.6701" font-family="Times,serif" font-size="14.00" fill="#000000">article sections</text>
<text text-anchor="middle" x="694.5" y="-102.6701" font-family="Times,serif" font-size="14.00" fill="#000000">(.sections)</text>
</g>
<!-- article_include&#45;&gt;article_sections -->
<g id="edge6" class="edge">
<title>article_include&#45;&gt;article_sections</title>
<path fill="none" stroke="#000000" stroke-dasharray="1,5" d="M614.1211,-191.7077C627.3101,-178.9357 645.3686,-161.4481 661.0281,-146.2837"/>
<polygon fill="#000000" stroke="#000000" points="663.742,-148.5278 668.4909,-139.0568 658.8724,-143.4991 663.742,-148.5278"/>
<text text-anchor="middle" x="668" y="-162.5401" font-family="Times,serif" font-size="14.00" fill="#000000">defines</text>
</g>
<!-- book_result -->
<g id="node8" class="node">
<title>book_result</title>
<ellipse fill="none" stroke="#000000" cx="265.5" cy="-18" rx="79.0865" ry="18"/>
<text text-anchor="middle" x="265.5" y="-14.3" font-family="Times,serif" font-size="14.00" fill="#000000">book export result</text>
</g>
<!-- book_dependencies&#45;&gt;book_result -->
<g id="edge7" class="edge">
<title>book_dependencies&#45;&gt;book_result</title>
<path fill="none" stroke="#000000" stroke-dasharray="1,5" d="M265.5,-86.9098C265.5,-74.2756 265.5,-59.2199 265.5,-46.4086"/>
<polygon fill="#000000" stroke="#000000" points="269.0001,-46.2775 265.5,-36.2775 262.0001,-46.2776 269.0001,-46.2775"/>
<text text-anchor="middle" x="290.5" y="-57.8" font-family="Times,serif" font-size="14.00" fill="#000000">uses rule</text>
</g>
<!-- article_result -->
<g id="node10" class="node">
<title>article_result</title>
<ellipse fill="none" stroke="#000000" cx="650.5" cy="-18" rx="81.4863" ry="18"/>
<text text-anchor="middle" x="650.5" y="-14.3" font-family="Times,serif" font-size="14.00" fill="#000000">article export result</text>
</g>
<!-- article_media&#45;&gt;article_result -->
<g id="edge10" class="edge">
<title>article_media&#45;&gt;article_result</title>
<path fill="none" stroke="#000000" stroke-dasharray="1,5" d="M570.7775,-89.4299C586.8468,-75.0321 607.1094,-56.8772 623.1853,-42.4735"/>
<polygon fill="#000000" stroke="#000000" points="625.5918,-45.0167 630.704,-35.7369 620.9206,-39.8032 625.5918,-45.0167"/>
<text text-anchor="middle" x="635.5" y="-57.8" font-family="Times,serif" font-size="14.00" fill="#000000">uses rule</text>
</g>
<!-- article_sections&#45;&gt;article_result -->
<g id="edge9" class="edge">
<title>article_sections&#45;&gt;article_result</title>
<path fill="none" stroke="#000000" stroke-dasharray="1,5" d="M682.2435,-87.1649C676.2862,-74.1846 669.1343,-58.6017 663.1284,-45.5157"/>
<polygon fill="#000000" stroke="#000000" points="666.1501,-43.7085 658.7979,-36.0799 659.7882,-46.6284 666.1501,-43.7085"/>
<text text-anchor="middle" x="698.5" y="-57.8" font-family="Times,serif" font-size="14.00" fill="#000000">uses rule</text>
</g>
<!-- book_dummy -->
<!-- book_dummy&#45;&gt;book_result -->
<g id="edge8" class="edge">
<title>book_dummy&#45;&gt;book_result</title>
<path fill="none" stroke="#000000" d="M99.0548,-18C121.9164,-18 149.7779,-18 176.1163,-18"/>
<polygon fill="#000000" stroke="#000000" points="176.1227,-21.5001 186.1226,-18 176.1226,-14.5001 176.1227,-21.5001"/>
<text text-anchor="middle" x="142.6035" y="-24.8" font-family="Times,serif" font-size="14.00" fill="#000000">make builds</text>
</g>
<!-- article_dummy -->
<!-- article_dummy&#45;&gt;article_result -->
<g id="edge11" class="edge">
<title>article_dummy&#45;&gt;article_result</title>
<path fill="none" stroke="#000000" d="M482.0802,-18C504.9526,-18 532.5722,-18 558.7695,-18"/>
<polygon fill="#000000" stroke="#000000" points="559.1125,-21.5001 569.1124,-18 559.1124,-14.5001 559.1125,-21.5001"/>
<text text-anchor="middle" x="525.6286" y="-24.8" font-family="Times,serif" font-size="14.00" fill="#000000">make builds</text>
</g>
</g>
</svg>
